<?xml version="1.0" encoding="UTF-8" standalone="no" ?>
<!DOCTYPE svg PUBLIC "-//W3C//DTD SVG 1.1//EN" "http://www.w3.org/Graphics/SVG/1.1/DTD/svg11.dtd">
<svg xmlns="http://www.w3.org/2000/svg" xmlns:xlink="http://www.w3.org/1999/xlink" version="1.1" width="1080" height="1080" viewBox="0 0 1080 1080" xml:space="preserve">
<desc>Created with Fabric.js 5.2.4</desc>
<defs>
</defs>
<g transform="matrix(1 0 0 1 540 540)" id="871e7ae9-c555-4078-a2ed-547352b6ac7f"  >
<rect style="stroke: none; stroke-width: 1; stroke-dasharray: none; stroke-linecap: butt; stroke-dashoffset: 0; stroke-linejoin: miter; stroke-miterlimit: 4; fill: rgb(255,255,255); fill-rule: nonzero; opacity: 1; visibility: hidden;" vector-effect="non-scaling-stroke"  x="-540" y="-540" rx="0" ry="0" width="1080" height="1080" />
</g>
<g transform="matrix(1 0 0 1 540 540)" id="8f0a6d6d-6c75-4eda-982e-a441ff23708f"  >
</g>
<g transform="matrix(2.39 0 0 2.39 540 540)"  >
<g style="" vector-effect="non-scaling-stroke"   >
		<g transform="matrix(1 0 0 1 -126.11 112.54)"  >
<line style="stroke: rgb(0,0,0); stroke-width: 0.7087; stroke-dasharray: none; stroke-linecap: round; stroke-dashoffset: 0; stroke-linejoin: round; stroke-miterlimit: 4; fill: rgb(255,255,255); fill-rule: nonzero; opacity: 1;" vector-effect="non-scaling-stroke"  x1="-9.004999999999995" y1="0" x2="9.004999999999995" y2="0" />
</g>
		<g transform="matrix(1 0 0 1 -135.11 4.46)"  >
<line style="stroke: rgb(0,0,0); stroke-width: 0.7087; stroke-dasharray: none; stroke-linecap: round; stroke-dashoffset: 0; stroke-linejoin: round; stroke-miterlimit: 4; fill: rgb(255,255,255); fill-rule: nonzero; opacity: 1;" vector-effect="non-scaling-stroke"  x1="0" y1="108.08500000000001" x2="0" y2="-108.08500000000001" />
</g>
		<g transform="matrix(1 0 0 1 -117.1 4.46)"  >
<line style="stroke: rgb(0,0,0); stroke-width: 0.7087; stroke-dasharray: none; stroke-linecap: round; stroke-dashoffset: 0; stroke-linejoin: round; stroke-miterlimit: 4; fill: rgb(255,255,255); fill-rule: nonzero; opacity: 1;" vector-effect="non-scaling-stroke"  x1="0" y1="-108.08500000000001" x2="0" y2="108.08500000000001" />
</g>
		<g transform="matrix(1 0 0 1 -126.11 -108.15)"  >
<path style="stroke: rgb(0,0,0); stroke-width: 0.7087; stroke-dasharray: none; stroke-linecap: round; stroke-dashoffset: 0; stroke-linejoin: round; stroke-miterlimit: 4; fill: rgb(255,255,255); fill-rule: nonzero; opacity: 1;" vector-effect="non-scaling-stroke"  transform=" translate(-116.84, -118.92)" d="M 125.85 123.44 C 125.871 118.465 121.856 114.41499999999999 116.88199999999999 114.394 C 111.90799999999999 114.37300000000002 107.85699999999999 118.388 107.83599999999998 123.36200000000001 L 107.83599999999998 123.44000000000001" stroke-linecap="round" />
</g>
		<g transform="matrix(1 0 0 1 -126.1 4.44)"  >
<rect style="stroke: none; stroke-width: 1; stroke-dasharray: none; stroke-linecap: butt; stroke-dashoffset: 0; stroke-linejoin: miter; stroke-miterlimit: 4; fill: rgb(255,255,255); fill-rule: evenodd; opacity: 1;" vector-effect="non-scaling-stroke"  x="-9.0075" y="-108.09" rx="0" ry="0" width="18.015" height="216.18" />
</g>
		<g transform="matrix(1 0 0 1 -90.08 112.54)"  >
<line style="stroke: rgb(0,0,0); stroke-width: 0.7087; stroke-dasharray: none; stroke-linecap: round; stroke-dashoffset: 0; stroke-linejoin: round; stroke-miterlimit: 4; fill: rgb(255,255,255); fill-rule: nonzero; opacity: 1;" vector-effect="non-scaling-stroke"  x1="-9.004999999999995" y1="0" x2="9.004999999999995" y2="0" />
</g>
		<g transform="matrix(1 0 0 1 -99.08 4.46)"  >
<line style="stroke: rgb(0,0,0); stroke-width: 0.7087; stroke-dasharray: none; stroke-linecap: round; stroke-dashoffset: 0; stroke-linejoin: round; stroke-miterlimit: 4; fill: rgb(255,255,255); fill-rule: nonzero; opacity: 1;" vector-effect="non-scaling-stroke"  x1="0" y1="108.08500000000001" x2="0" y2="-108.08500000000001" />
</g>
		<g transform="matrix(1 0 0 1 -81.07 4.46)"  >
<line style="stroke: rgb(0,0,0); stroke-width: 0.7087; stroke-dasharray: none; stroke-linecap: round; stroke-dashoffset: 0; stroke-linejoin: round; stroke-miterlimit: 4; fill: rgb(255,255,255); fill-rule: nonzero; opacity: 1;" vector-effect="non-scaling-stroke"  x1="0" y1="-108.08500000000001" x2="0" y2="108.08500000000001" />
</g>
		<g transform="matrix(1 0 0 1 -90.08 -108.15)"  >
<path style="stroke: rgb(0,0,0); stroke-width: 0.7087; stroke-dasharray: none; stroke-linecap: round; stroke-dashoffset: 0; stroke-linejoin: round; stroke-miterlimit: 4; fill: rgb(255,255,255); fill-rule: nonzero; opacity: 1;" vector-effect="non-scaling-stroke"  transform=" translate(-152.87, -118.92)" d="M 161.88 123.44 C 161.902 118.465 157.886 114.41499999999999 152.912 114.394 C 147.93800000000002 114.37300000000002 143.888 118.388 143.866 123.36200000000001 L 143.866 123.44000000000001" stroke-linecap="round" />
</g>
		<g transform="matrix(1 0 0 1 -90.07 4.44)"  >
<rect style="stroke: none; stroke-width: 1; stroke-dasharray: none; stroke-linecap: butt; stroke-dashoffset: 0; stroke-linejoin: miter; stroke-miterlimit: 4; fill: rgb(255,255,255); fill-rule: evenodd; opacity: 1;" vector-effect="non-scaling-stroke"  x="-9.0075" y="-108.09" rx="0" ry="0" width="18.015" height="216.18" />
</g>
		<g transform="matrix(1 0 0 1 -54.05 112.54)"  >
<line style="stroke: rgb(0,0,0); stroke-width: 0.7087; stroke-dasharray: none; stroke-linecap: round; stroke-dashoffset: 0; stroke-linejoin: round; stroke-miterlimit: 4; fill: rgb(255,255,255); fill-rule: nonzero; opacity: 1;" vector-effect="non-scaling-stroke"  x1="-9.004999999999995" y1="0" x2="9.004999999999995" y2="0" />
</g>
		<g transform="matrix(1 0 0 1 -63.05 4.46)"  >
<line style="stroke: rgb(0,0,0); stroke-width: 0.7087; stroke-dasharray: none; stroke-linecap: round; stroke-dashoffset: 0; stroke-linejoin: round; stroke-miterlimit: 4; fill: rgb(255,255,255); fill-rule: nonzero; opacity: 1;" vector-effect="non-scaling-stroke"  x1="0" y1="108.08500000000001" x2="0" y2="-108.08500000000001" />
</g>
		<g transform="matrix(1 0 0 1 -45.04 4.46)"  >
<line style="stroke: rgb(0,0,0); stroke-width: 0.7087; stroke-dasharray: none; stroke-linecap: round; stroke-dashoffset: 0; stroke-linejoin: round; stroke-miterlimit: 4; fill: rgb(255,255,255); fill-rule: nonzero; opacity: 1;" vector-effect="non-scaling-stroke"  x1="0" y1="-108.08500000000001" x2="0" y2="108.08500000000001" />
</g>
		<g transform="matrix(1 0 0 1 -54.05 -108.15)"  >
<path style="stroke: rgb(0,0,0); stroke-width: 0.7087; stroke-dasharray: none; stroke-linecap: round; stroke-dashoffset: 0; stroke-linejoin: round; stroke-miterlimit: 4; fill: rgb(255,255,255); fill-rule: nonzero; opacity: 1;" vector-effect="non-scaling-stroke"  transform=" translate(-188.9, -118.92)" d="M 197.91 123.44 C 197.93099999999998 118.465 193.916 114.41499999999999 188.942 114.394 C 183.96800000000002 114.37300000000002 179.917 118.388 179.89600000000002 123.36200000000001 L 179.89600000000002 123.44000000000001" stroke-linecap="round" />
</g>
		<g transform="matrix(1 0 0 1 -54.04 4.44)"  >
<rect style="stroke: none; stroke-width: 1; stroke-dasharray: none; stroke-linecap: butt; stroke-dashoffset: 0; stroke-linejoin: miter; stroke-miterlimit: 4; fill: rgb(255,255,255); fill-rule: evenodd; opacity: 1;" vector-effect="non-scaling-stroke"  x="-9.0075" y="-108.09" rx="0" ry="0" width="18.015" height="216.18" />
</g>
		<g transform="matrix(1 0 0 1 -18.02 112.54)"  >
<line style="stroke: rgb(0,0,0); stroke-width: 0.7087; stroke-dasharray: none; stroke-linecap: round; stroke-dashoffset: 0; stroke-linejoin: round; stroke-miterlimit: 4; fill: rgb(255,255,255); fill-rule: nonzero; opacity: 1;" vector-effect="non-scaling-stroke"  x1="-9.004999999999995" y1="0" x2="9.004999999999995" y2="0" />
</g>
		<g transform="matrix(1 0 0 1 -27.02 4.46)"  >
<line style="stroke: rgb(0,0,0); stroke-width: 0.7087; stroke-dasharray: none; stroke-linecap: round; stroke-dashoffset: 0; stroke-linejoin: round; stroke-miterlimit: 4; fill: rgb(255,255,255); fill-rule: nonzero; opacity: 1;" vector-effect="non-scaling-stroke"  x1="0" y1="108.08500000000001" x2="0" y2="-108.08500000000001" />
</g>
		<g transform="matrix(1 0 0 1 -9.01 4.46)"  >
<line style="stroke: rgb(0,0,0); stroke-width: 0.7087; stroke-dasharray: none; stroke-linecap: round; stroke-dashoffset: 0; stroke-linejoin: round; stroke-miterlimit: 4; fill: rgb(255,255,255); fill-rule: nonzero; opacity: 1;" vector-effect="non-scaling-stroke"  x1="0" y1="-108.08500000000001" x2="0" y2="108.08500000000001" />
</g>
		<g transform="matrix(1 0 0 1 -18.02 -108.15)"  >
<path style="stroke: rgb(0,0,0); stroke-width: 0.7087; stroke-dasharray: none; stroke-linecap: round; stroke-dashoffset: 0; stroke-linejoin: round; stroke-miterlimit: 4; fill: rgb(255,255,255); fill-rule: nonzero; opacity: 1;" vector-effect="non-scaling-stroke"  transform=" translate(-224.93, -118.92)" d="M 233.94 123.44 C 233.96099999999998 118.465 229.946 114.41499999999999 224.972 114.394 C 219.99800000000002 114.37300000000002 215.947 118.388 215.92600000000002 123.36200000000001 L 215.92600000000002 123.44000000000001" stroke-linecap="round" />
</g>
		<g transform="matrix(1 0 0 1 -18.01 4.44)"  >
<rect style="stroke: none; stroke-width: 1; stroke-dasharray: none; stroke-linecap: butt; stroke-dashoffset: 0; stroke-linejoin: miter; stroke-miterlimit: 4; fill: rgb(255,255,255); fill-rule: evenodd; opacity: 1;" vector-effect="non-scaling-stroke"  x="-9.0075" y="-108.09" rx="0" ry="0" width="18.015" height="216.18" />
</g>
		<g transform="matrix(1 0 0 1 18.01 112.54)"  >
<line style="stroke: rgb(0,0,0); stroke-width: 0.7087; stroke-dasharray: none; stroke-linecap: round; stroke-dashoffset: 0; stroke-linejoin: round; stroke-miterlimit: 4; fill: rgb(255,255,255); fill-rule: nonzero; opacity: 1;" vector-effect="non-scaling-stroke"  x1="-9.00500000000001" y1="0" x2="9.00500000000001" y2="0" />
</g>
		<g transform="matrix(1 0 0 1 9.01 4.46)"  >
<line style="stroke: rgb(0,0,0); stroke-width: 0.7087; stroke-dasharray: none; stroke-linecap: round; stroke-dashoffset: 0; stroke-linejoin: round; stroke-miterlimit: 4; fill: rgb(255,255,255); fill-rule: nonzero; opacity: 1;" vector-effect="non-scaling-stroke"  x1="0" y1="108.08500000000001" x2="0" y2="-108.08500000000001" />
</g>
		<g transform="matrix(1 0 0 1 27.02 4.46)"  >
<line style="stroke: rgb(0,0,0); stroke-width: 0.7087; stroke-dasharray: none; stroke-linecap: round; stroke-dashoffset: 0; stroke-linejoin: round; stroke-miterlimit: 4; fill: rgb(255,255,255); fill-rule: nonzero; opacity: 1;" vector-effect="non-scaling-stroke"  x1="0" y1="-108.08500000000001" x2="0" y2="108.08500000000001" />
</g>
		<g transform="matrix(1 0 0 1 18.01 -108.15)"  >
<path style="stroke: rgb(0,0,0); stroke-width: 0.7087; stroke-dasharray: none; stroke-linecap: round; stroke-dashoffset: 0; stroke-linejoin: round; stroke-miterlimit: 4; fill: rgb(255,255,255); fill-rule: nonzero; opacity: 1;" vector-effect="non-scaling-stroke"  transform=" translate(-260.96, -118.92)" d="M 269.97 123.44 C 269.99100000000004 118.465 265.976 114.41499999999999 261.00100000000003 114.394 C 256.02600000000007 114.37300000000002 251.97700000000003 118.388 251.95500000000004 123.36200000000001 C 251.95400000000004 123.382 251.95400000000004 123.421 251.95500000000004 123.44000000000001" stroke-linecap="round" />
</g>
		<g transform="matrix(1 0 0 1 18.02 4.44)"  >
<rect style="stroke: none; stroke-width: 1; stroke-dasharray: none; stroke-linecap: butt; stroke-dashoffset: 0; stroke-linejoin: miter; stroke-miterlimit: 4; fill: rgb(255,255,255); fill-rule: evenodd; opacity: 1;" vector-effect="non-scaling-stroke"  x="-9.0075" y="-108.09" rx="0" ry="0" width="18.015" height="216.18" />
</g>
		<g transform="matrix(1 0 0 1 54.04 112.54)"  >
<line style="stroke: rgb(0,0,0); stroke-width: 0.7087; stroke-dasharray: none; stroke-linecap: round; stroke-dashoffset: 0; stroke-linejoin: round; stroke-miterlimit: 4; fill: rgb(255,255,255); fill-rule: nonzero; opacity: 1;" vector-effect="non-scaling-stroke"  x1="-9.004999999999995" y1="0" x2="9.004999999999995" y2="0" />
</g>
		<g transform="matrix(1 0 0 1 45.04 4.46)"  >
<line style="stroke: rgb(0,0,0); stroke-width: 0.7087; stroke-dasharray: none; stroke-linecap: round; stroke-dashoffset: 0; stroke-linejoin: round; stroke-miterlimit: 4; fill: rgb(255,255,255); fill-rule: nonzero; opacity: 1;" vector-effect="non-scaling-stroke"  x1="0" y1="108.08500000000001" x2="0" y2="-108.08500000000001" />
</g>
		<g transform="matrix(1 0 0 1 63.05 4.46)"  >
<line style="stroke: rgb(0,0,0); stroke-width: 0.7087; stroke-dasharray: none; stroke-linecap: round; stroke-dashoffset: 0; stroke-linejoin: round; stroke-miterlimit: 4; fill: rgb(255,255,255); fill-rule: nonzero; opacity: 1;" vector-effect="non-scaling-stroke"  x1="0" y1="-108.08500000000001" x2="0" y2="108.08500000000001" />
</g>
		<g transform="matrix(1 0 0 1 54.04 -108.15)"  >
<path style="stroke: rgb(0,0,0); stroke-width: 0.7087; stroke-dasharray: none; stroke-linecap: round; stroke-dashoffset: 0; stroke-linejoin: round; stroke-miterlimit: 4; fill: rgb(255,255,255); fill-rule: nonzero; opacity: 1;" vector-effect="non-scaling-stroke"  transform=" translate(-296.99, -118.92)" d="M 306 123.44 C 306.021 118.465 302.006 114.41499999999999 297.031 114.394 C 292.05600000000004 114.37300000000002 288.007 118.388 287.985 123.36200000000001 L 287.985 123.44000000000001" stroke-linecap="round" />
</g>
		<g transform="matrix(1 0 0 1 54.05 4.44)"  >
<rect style="stroke: none; stroke-width: 1; stroke-dasharray: none; stroke-linecap: butt; stroke-dashoffset: 0; stroke-linejoin: miter; stroke-miterlimit: 4; fill: rgb(255,255,255); fill-rule: evenodd; opacity: 1;" vector-effect="non-scaling-stroke"  x="-9.0075" y="-108.09" rx="0" ry="0" width="18.015" height="216.18" />
</g>
		<g transform="matrix(1 0 0 1 90.07 112.54)"  >
<line style="stroke: rgb(0,0,0); stroke-width: 0.7087; stroke-dasharray: none; stroke-linecap: round; stroke-dashoffset: 0; stroke-linejoin: round; stroke-miterlimit: 4; fill: rgb(255,255,255); fill-rule: nonzero; opacity: 1;" vector-effect="non-scaling-stroke"  x1="-9.004999999999995" y1="0" x2="9.004999999999995" y2="0" />
</g>
		<g transform="matrix(1 0 0 1 81.07 4.46)"  >
<line style="stroke: rgb(0,0,0); stroke-width: 0.7087; stroke-dasharray: none; stroke-linecap: round; stroke-dashoffset: 0; stroke-linejoin: round; stroke-miterlimit: 4; fill: rgb(255,255,255); fill-rule: nonzero; opacity: 1;" vector-effect="non-scaling-stroke"  x1="0" y1="108.08500000000001" x2="0" y2="-108.08500000000001" />
</g>
		<g transform="matrix(1 0 0 1 99.08 4.46)"  >
<line style="stroke: rgb(0,0,0); stroke-width: 0.7087; stroke-dasharray: none; stroke-linecap: round; stroke-dashoffset: 0; stroke-linejoin: round; stroke-miterlimit: 4; fill: rgb(255,255,255); fill-rule: nonzero; opacity: 1;" vector-effect="non-scaling-stroke"  x1="0" y1="-108.08500000000001" x2="0" y2="108.08500000000001" />
</g>
		<g transform="matrix(1 0 0 1 90.07 -108.15)"  >
<path style="stroke: rgb(0,0,0); stroke-width: 0.7087; stroke-dasharray: none; stroke-linecap: round; stroke-dashoffset: 0; stroke-linejoin: round; stroke-miterlimit: 4; fill: rgb(255,255,255); fill-rule: nonzero; opacity: 1;" vector-effect="non-scaling-stroke"  transform=" translate(-333.02, -118.92)" d="M 342.03 123.44 C 342.051 118.465 338.03599999999994 114.41499999999999 333.061 114.394 C 328.086 114.37300000000002 324.03799999999995 118.388 324.01599999999996 123.36200000000001 L 324.01599999999996 123.44000000000001" stroke-linecap="round" />
</g>
		<g transform="matrix(1 0 0 1 90.08 4.44)"  >
<rect style="stroke: none; stroke-width: 1; stroke-dasharray: none; stroke-linecap: butt; stroke-dashoffset: 0; stroke-linejoin: miter; stroke-miterlimit: 4; fill: rgb(255,255,255); fill-rule: evenodd; opacity: 1;" vector-effect="non-scaling-stroke"  x="-9.007" y="-108.09" rx="0" ry="0" width="18.014" height="216.18" />
</g>
		<g transform="matrix(1 0 0 1 126.1 112.54)"  >
<line style="stroke: rgb(0,0,0); stroke-width: 0.7087; stroke-dasharray: none; stroke-linecap: round; stroke-dashoffset: 0; stroke-linejoin: round; stroke-miterlimit: 4; fill: rgb(255,255,255); fill-rule: nonzero; opacity: 1;" vector-effect="non-scaling-stroke"  x1="-9.009999999999991" y1="0" x2="9.009999999999991" y2="0" />
</g>
		<g transform="matrix(1 0 0 1 117.09 4.46)"  >
<line style="stroke: rgb(0,0,0); stroke-width: 0.7087; stroke-dasharray: none; stroke-linecap: round; stroke-dashoffset: 0; stroke-linejoin: round; stroke-miterlimit: 4; fill: rgb(255,255,255); fill-rule: nonzero; opacity: 1;" vector-effect="non-scaling-stroke"  x1="0" y1="108.08500000000001" x2="0" y2="-108.08500000000001" />
</g>
		<g transform="matrix(1 0 0 1 135.11 4.46)"  >
<line style="stroke: rgb(0,0,0); stroke-width: 0.7087; stroke-dasharray: none; stroke-linecap: round; stroke-dashoffset: 0; stroke-linejoin: round; stroke-miterlimit: 4; fill: rgb(255,255,255); fill-rule: nonzero; opacity: 1;" vector-effect="non-scaling-stroke"  x1="0" y1="-108.08500000000001" x2="0" y2="108.08500000000001" />
</g>
		<g transform="matrix(1 0 0 1 126.1 -108.15)"  >
<path style="stroke: rgb(0,0,0); stroke-width: 0.7087; stroke-dasharray: none; stroke-linecap: round; stroke-dashoffset: 0; stroke-linejoin: round; stroke-miterlimit: 4; fill: rgb(255,255,255); fill-rule: nonzero; opacity: 1;" vector-effect="non-scaling-stroke"  transform=" translate(-369.05, -118.92)" d="M 378.06 123.44 C 378.081 118.465 374.066 114.41499999999999 369.091 114.394 C 364.11600000000004 114.37300000000002 360.068 118.388 360.046 123.36200000000001 L 360.046 123.44000000000001" stroke-linecap="round" />
</g>
		<g transform="matrix(1 0 0 1 126.1 4.44)"  >
<rect style="stroke: none; stroke-width: 1; stroke-dasharray: none; stroke-linecap: butt; stroke-dashoffset: 0; stroke-linejoin: miter; stroke-miterlimit: 4; fill: rgb(255,255,255); fill-rule: evenodd; opacity: 1;" vector-effect="non-scaling-stroke"  x="-9.007" y="-108.09" rx="0" ry="0" width="18.014" height="216.18" />
</g>
		<g transform="matrix(1 0 0 1 0 -72.13)"  >
<polyline style="stroke: rgb(0,0,0); stroke-width: 0.7087; stroke-dasharray: none; stroke-linecap: round; stroke-dashoffset: 0; stroke-linejoin: round; stroke-miterlimit: 4; fill: rgb(255,255,255); fill-rule: nonzero; opacity: 1;" vector-effect="non-scaling-stroke"  points="-144.12,-9.01 144.12,-9.01 144.12,9.01 -144.12,9.01 -144.12,-9.01 " />
</g>
		<g transform="matrix(1 0 0 1 0 -72.13)"  >
<rect style="stroke: none; stroke-width: 1; stroke-dasharray: none; stroke-linecap: butt; stroke-dashoffset: 0; stroke-linejoin: miter; stroke-miterlimit: 4; fill: rgb(255,255,255); fill-rule: evenodd; opacity: 1;" vector-effect="non-scaling-stroke"  x="-144.12" y="-9.0075" rx="0" ry="0" width="288.24" height="18.015" />
</g>
		<g transform="matrix(1 0 0 1 0 71.99)"  >
<polyline style="stroke: rgb(0,0,0); stroke-width: 0.7087; stroke-dasharray: none; stroke-linecap: round; stroke-dashoffset: 0; stroke-linejoin: round; stroke-miterlimit: 4; fill: rgb(255,255,255); fill-rule: nonzero; opacity: 1;" vector-effect="non-scaling-stroke"  points="-144.12,-9.01 144.12,-9.01 144.12,9.01 -144.12,9.01 -144.12,-9.01 " />
</g>
		<g transform="matrix(1 0 0 1 0 71.99)"  >
<rect style="stroke: none; stroke-width: 1; stroke-dasharray: none; stroke-linecap: butt; stroke-dashoffset: 0; stroke-linejoin: miter; stroke-miterlimit: 4; fill: rgb(255,255,255); fill-rule: evenodd; opacity: 1;" vector-effect="non-scaling-stroke"  x="-144.12" y="-9.0075" rx="0" ry="0" width="288.24" height="18.015" />
</g>
</g>
</g>
</svg>