<?xml version="1.0" encoding="UTF-8" standalone="no" ?>
<!DOCTYPE svg PUBLIC "-//W3C//DTD SVG 1.1//EN" "http://www.w3.org/Graphics/SVG/1.1/DTD/svg11.dtd">
<svg xmlns="http://www.w3.org/2000/svg" xmlns:xlink="http://www.w3.org/1999/xlink" version="1.1" width="1080" height="1080" viewBox="0 0 1080 1080" xml:space="preserve">
<desc>Created with Fabric.js 5.2.4</desc>
<defs>
</defs>
<rect x="0" y="0" width="100%" height="100%" fill="transparent"></rect>
<g transform="matrix(1 0 0 1 540 540)" id="871e7ae9-c555-4078-a2ed-547352b6ac7f"  >
<rect style="stroke: none; stroke-width: 1; stroke-dasharray: none; stroke-linecap: butt; stroke-dashoffset: 0; stroke-linejoin: miter; stroke-miterlimit: 4; fill: rgb(255,255,255); fill-rule: nonzero; opacity: 1; visibility: hidden;" vector-effect="non-scaling-stroke"  x="-540" y="-540" rx="0" ry="0" width="1080" height="1080" />
</g>
<g transform="matrix(1 0 0 1 540 540)" id="8f0a6d6d-6c75-4eda-982e-a441ff23708f"  >
</g>
<g transform="matrix(7.67 0 0 7.67 572.6 540)"  >
<g style="" vector-effect="non-scaling-stroke"   >
		<g transform="matrix(1.01 0 0 0.97 16.48 14.05)" id="path1842"  >
<path style="stroke: rgb(255,255,255); stroke-width: 8.1799; stroke-dasharray: none; stroke-linecap: round; stroke-dashoffset: 0; stroke-linejoin: round; stroke-miterlimit: 4; fill: rgb(255,255,255); fill-rule: nonzero; opacity: 1;" vector-effect="non-scaling-stroke"  transform=" translate(-46.52, -44.56)" d="M 37.812 33.005 L 37.812 55.77 L 37.812 56.147000000000006 L 52.717999999999996 56.147000000000006 C 54.117 56.147000000000006 55.218999999999994 55.011 55.218999999999994 53.61200000000001 L 55.218999999999994 32.96900000000001 L 37.812 33.00500000000001 z" stroke-linecap="round" />
</g>
		<g transform="matrix(1.01 0 0 0.97 -7.68 -7.57)" id="path1843"  >
<path style="stroke: rgb(255,255,255); stroke-width: 8.1799; stroke-dasharray: none; stroke-linecap: butt; stroke-dashoffset: 0; stroke-linejoin: round; stroke-miterlimit: 4; fill: rgb(255,255,255); fill-rule: nonzero; opacity: 1;" vector-effect="non-scaling-stroke"  transform=" translate(-22.72, -22.31)" d="M 7.8125 4.0625 C 6.4416 4.0625 5.3438 5.1604 5.3438 6.5312 L 5.3438 38.0942 C 5.3438 39.4652 6.4416 40.562200000000004 7.8125 40.562200000000004 L 20.500500000000002 40.562200000000004 L 20.500500000000002 22.094200000000004 C 20.500500000000002 20.723200000000006 21.5985 19.625200000000003 22.969500000000004 19.625200000000003 L 40.094500000000004 19.625200000000003 L 40.094500000000004 6.531200000000004 C 40.094500000000004 5.160600000000004 38.965500000000006 4.062700000000003 37.594500000000004 4.062700000000003 L 7.8125000000000036 4.062700000000003 z" stroke-linecap="round" />
</g>
		<g transform="matrix(1.01 0 0 0.97 16.48 14.05)" id="path1126"  >
<path style="stroke: rgb(0,0,0); stroke-width: 3.1461; stroke-dasharray: none; stroke-linecap: round; stroke-dashoffset: 0; stroke-linejoin: round; stroke-miterlimit: 4; fill: rgb(255,255,255); fill-rule: evenodd; opacity: 1;" vector-effect="non-scaling-stroke"  transform=" translate(-46.52, -44.56)" d="M 37.812 33.005 L 37.812 55.77 L 37.812 56.147000000000006 L 52.717999999999996 56.147000000000006 C 54.117 56.147000000000006 55.218999999999994 55.011 55.218999999999994 53.61200000000001 L 55.218999999999994 32.96900000000001 L 37.812 33.00500000000001 z" stroke-linecap="round" />
</g>
		<g transform="matrix(1.01 0 0 0.97 -7.68 -7.57)" id="rect1101"  >
<path style="stroke: rgb(0,0,0); stroke-width: 3.1461; stroke-dasharray: none; stroke-linecap: butt; stroke-dashoffset: 0; stroke-linejoin: round; stroke-miterlimit: 4; fill: rgb(255,255,255); fill-rule: evenodd; opacity: 1;" vector-effect="non-scaling-stroke"  transform=" translate(-22.72, -22.31)" d="M 7.8125 4.0625 C 6.4416 4.0625 5.3438 5.1604 5.3438 6.5312 L 5.3438 38.0942 C 5.3438 39.4652 6.4416 40.562200000000004 7.8125 40.562200000000004 L 20.500500000000002 40.562200000000004 L 20.500500000000002 22.094200000000004 C 20.500500000000002 20.723200000000006 21.5985 19.625200000000003 22.969500000000004 19.625200000000003 L 40.094500000000004 19.625200000000003 L 40.094500000000004 6.531200000000004 C 40.094500000000004 5.160600000000004 38.965500000000006 4.062700000000003 37.594500000000004 4.062700000000003 L 7.8125000000000036 4.062700000000003 z" stroke-linecap="round" />
</g>
</g>
</g>
</svg>