<?xml version="1.0" encoding="UTF-8" standalone="no" ?>
<!DOCTYPE svg PUBLIC "-//W3C//DTD SVG 1.1//EN" "http://www.w3.org/Graphics/SVG/1.1/DTD/svg11.dtd">
<svg xmlns="http://www.w3.org/2000/svg" xmlns:xlink="http://www.w3.org/1999/xlink" version="1.1" width="1080" height="1080" viewBox="0 0 1080 1080" xml:space="preserve">
<desc>Created with Fabric.js 5.2.4</desc>
<defs>
</defs>
<g transform="matrix(1 0 0 1 540 540)" id="3060e4c2-0f26-435f-adb1-2ed4cc8532c4"  >
<rect style="stroke: none; stroke-width: 1; stroke-dasharray: none; stroke-linecap: butt; stroke-dashoffset: 0; stroke-linejoin: miter; stroke-miterlimit: 4; fill: rgb(255,255,255); fill-rule: nonzero; opacity: 1; visibility: hidden;" vector-effect="non-scaling-stroke"  x="-540" y="-540" rx="0" ry="0" width="1080" height="1080" />
</g>
<g transform="matrix(1 0 0 1 540 540)" id="456f429a-d9df-4456-b082-8686da488988"  >
</g>
<g transform="matrix(NaN NaN NaN NaN 0 0)"  >
<g style=""   >
</g>
</g>
<g transform="matrix(1 0 0 1 566.3 540)"  >
<g style="" vector-effect="non-scaling-stroke"   >
		<g transform="matrix(6.42 0 0 6.42 0 -47.88)" id="path906"  >
<path style="stroke: none; stroke-width: 1; stroke-dasharray: none; stroke-linecap: round; stroke-dashoffset: 0; stroke-linejoin: round; stroke-miterlimit: 4; fill: rgb(255,255,255); fill-rule: nonzero; opacity: 1;" vector-effect="non-scaling-stroke"  transform=" translate(-106.28, -266.11)" d="M 131.37937 230.9983 C 138.29677999999998 232.46299 138.89024999999998 234.66719 141.06291 237.7383 C 143.11694 245.40402 143.89891999999998 253.38998 144.76469 262.88119 C 151.98505 265.06416 162.96729 274.6462 166.11625 282.06443 C 164.61368000000002 282.06443 163.05652 282.06143000000003 161.09123 282.06143000000003 C 155.30444 274.64447 146.42666 270.30279 137.01932 270.28903 C 120.12590999999999 270.28914000000003 106.43111999999999 283.98394 106.43100999999999 300.87735000000004 C 106.43200999999999 300.99562000000003 106.43800999999999 301.11362 106.44100999999999 301.23184000000003 C 97.582326 301.17714 91.50917299999999 300.90733000000006 80.835341 300.90733000000006 C 79.356111 287.77770000000004 64.333959 277.87728000000004 46.559399 287.4885100000001 C 46.559399 279.8471600000001 45.996411 277.54467000000005 47.296822 272.6914700000001 C 48.300613999999996 268.9452600000001 52.48098 266.6603800000001 55.935052 264.8965800000001 C 65.412752 260.05689000000007 87.15847 258.2380900000001 87.15847 258.2380900000001 L 87.15847 238.10702000000012 L 88.48810399999999 238.10702000000012 L 88.48810399999999 230.99789000000013 L 91.56440199999999 230.99789000000013 L 91.56440199999999 238.01348000000013 L 92.69663299999999 238.01348000000013 L 92.69663299999999 257.5197900000001 L 96.22665099999999 257.06193000000013 C 96.22665099999999 257.06193000000013 96.741953 242.91286000000014 100.28893 237.13653000000014 C 101.46734 235.21748000000014 103.59703999999999 233.63000000000014 105.58215 232.93834000000012 C 108.72006 232.07581000000013 113.98187 231.32948000000013 119.66656 230.99789000000013 z M 125.69821999999999 235.95603 C 119.47874999999999 235.95303 112.72116999999999 236.73405 107.52449999999999 238.36219 C 102.54026999999999 242.46819 102.65559999999999 251.46374 102.40905 257.283 L 102.40905 275.89064 L 107.87227999999999 276.08133000000004 C 114.97561999999999 268.17814000000004 121.82497 264.59992000000005 138.06579 262.82633000000004 C 138.06579 262.82633000000004 137.1967 247.59093000000004 134.82439 238.73736000000005 C 131.72455 236.36892000000006 129.89391999999998 236.17410000000004 125.69821999999999 235.95603000000006 z" stroke-linecap="round" />
</g>
		<g transform="matrix(-6.42 0 0 6.42 189.8 135.72)" id="path963"  >
<circle style="stroke: none; stroke-width: 1.19543242; stroke-dasharray: none; stroke-linecap: round; stroke-dashoffset: 0; stroke-linejoin: round; stroke-miterlimit: 4; fill: rgb(255,255,255); fill-rule: nonzero; opacity: 1;" vector-effect="non-scaling-stroke"  cx="0" cy="0" r="21.255083" />
</g>
		<g transform="matrix(-6.42 0 0 6.42 -288.23 179.89)" id="path963-5"  >
<circle style="stroke: none; stroke-width: 0.8188864; stroke-dasharray: none; stroke-linecap: round; stroke-dashoffset: 0; stroke-linejoin: round; stroke-miterlimit: 4; fill: rgb(255,255,255); fill-rule: nonzero; opacity: 1;" vector-effect="non-scaling-stroke"  cx="0" cy="0" r="14.560005" />
</g>
</g>
</g>
</svg>