<svg xmlns="http://www.w3.org/2000/svg" version="1.1" xmlns:xlink="http://www.w3.org/1999/xlink" xmlns:svgjs="http://svgjs.com/svgjs" width="512" height="512" x="0" y="0" viewBox="0 0 556.012 556.012" style="enable-background:new 0 0 512 512" xml:space="preserve" class=""><g><path d="M9.469 226.129c.992 5.573 2.358 11.102 2.999 16.712 1.428 12.501 3.949 25.108 3.362 37.543-.75 15.896-4.121 31.665-6.361 47.487.833-.347 1.665-.698 2.501-1.045 3.285 4.998 6.569 9.996 10.127 15.415a49662.09 49662.09 0 0 1-5.104 16.409c2.432-1.946 4.268-3.415 4.811-3.848l4.215 24.599c2.57-2.117 3.37-2.778 3.949-3.26.673 3.578 1.351 7.168 2.028 10.759l1.334-.073 2.093-8.45 1.995.074c10.18 30.791 22.595 59.535 25.063 90.584 0 0-1.787 5.594 2.191 8.127 3.978 2.53 44.847 2.893 48.462 0 3.615-2.893-8.604-17.14-17.683-21.049-2.848-11.803-6.185-22.097-8.054-34.063-1.897-12.143-2.746-24.509-3.166-36.806-.424-12.379 4.063-23.301 10.897-33.758 5.161-7.899 8.886-16.883 12.273-25.757 3.566-9.344 5.479-19.319 9.041-28.662 3.007-7.887 6.846-8.025 13.472-2.596 6.756 5.541 13.337 12.146 21.196 15.271 9.649 3.84 20.518 4.688 30.906 6.577 6.075 1.106 12.26 2.57 18.356 2.407 18.601-.497 37.173-1.941 55.773-2.542 8.364-.269 14.093 4.194 15.602 12.433 2.272 12.402 2.848 25.141 5.528 37.438 2.677 12.272 2.203 24.99 8.417 36.903 6.691 12.828 9.295 27.394 4.762 41.951-1.049 3.37-3.721 6.772-6.605 8.771 0 0-3.383 16.961.478 20.82 3.859 3.855 24.112 2.411 35.202 1.448 0 0 27.968 5.786 39.058 2.412 11.094-3.375 5.304-10.127 4.341-13.982-.967-3.855-8.494-4.794-8.494-4.794-1.469-2.856-6.59-4.125-7.169-7.152-2.692-14.125-1.832-28.091 1.832-42.085 4.554-17.381 7.85-35.101 12.677-52.4 1.673-6.001 5.585-11.799 9.739-16.593 7.747-8.939 21.399-10.972 27.242-22.452.085-.167.412-.225.636-.302 11.29-3.986 16.124-13.081 19.295-23.771 1.656-5.585 4.06-10.959 6.287-16.36 6.585-15.981 19.185-27.262 31.31-38.695 3.664-3.452 10.024-6.748 14.55-6.079 13.929 2.057 27.564 5.569 41.302-.518.637-.281 1.444-.767 1.991-.591 9.837 3.174 18.339-.192 26.487-5.3 2.366-1.485 6.638-3.162 6.605-4.675-.147-6.752-.204-14.056-2.791-20.082-3.803-8.845-10.245-16.52-14.586-25.182-2.982-5.949-3.064-12.709-.6-19.56 2.081.718 3.427 1.167 4.757 1.648 9.172 3.301 15.745-1.979 14.827-11.473-.245-2.534.607-5.757 2.13-7.785 8.282-11.012 6.564-17.997-6.422-23.105-2.546-1-5.61-1.167-8.385-.975-5.198.359-10.354 1.261-14.586 1.812-2.791-3.929-4.325-8.278-7.303-9.796-4.99-2.538-8.075-5.112-6.517-10.2l-25.561-9.494c2.011-1.057 3.043-1.595 4.076-2.138l-.734-2.008c-7.487 2.277-14.974 4.558-22.697 6.908.171 4.602-.094 9.298-7.308 8.817-1.15-.078-2.611 1.212-3.574 2.211-4.182 4.333-8.404 6.609-14.517 3.043-1.828-1.065-5.287-.245-7.638.657-7.144 2.742-13.293 7.165-22.064 6.096-6.116-.743-12.705 2.844-19.144 4.186-14.822 3.093-29.376 3.623-42.979-4.818-1.963-1.22-4.524-1.995-6.83-2.052-9.649-.229-19.318.171-28.964-.2-6.487-.249-12.938-1.383-19.4-2.154-3.239-.388-6.454-1.012-9.702-1.253-7.74-.571-15.888.327-23.113-1.86-5.985-1.812-12.228-1.318-16.634.11-10.016 3.248-19.56 2.468-28.69-.286-29.192-8.809-59.185-13.072-89.254-16.797-6.348-.759-11.358-3.089-16.369-6.181-3.75-2.318-7.177-5.235-11.383-2.126-4.851-1.249-10.392-2.974-14.521-1.273-5.757 2.371-13.386-.779-17.572 5.908-.171.269-1.347-.008-2.032-.151-7.928-1.648-14.305 2.656-19.854 6.769-6.393 4.741-12.632 7.229-20.126 5.5-3.321 4.133-2.644 11.122-9.861 11.42-.604.024-1.428 1.367-1.677 2.232-1.856 6.387-3.048 13.021-5.488 19.165-4.757 11.991-2.607 24.57-3.941 36.834-.4 3.664-.139 7.507.473 11.159 2.812 16.683 5.839 33.334 8.805 49.992zm308.183 185.289c.641-.032 1.285-.061 1.926-.094 1.028 7.426 2.627 14.831 2.93 22.285.306 7.613 1.767 15.626-2.689 23.896-5.194-16.111-7.512-31.011-2.167-46.087z" fill="#000000" data-original="#000000" class=""></path></g></svg>